<?xml version="1.0" encoding="utf-8"?>
<!-- Generator: Adobe Illustrator 20.0.0, SVG Export Plug-In . SVG Version: 6.00 Build 0)  -->
<svg version="1.1" id="Layer_1" xmlns="http://www.w3.org/2000/svg" xmlns:xlink="http://www.w3.org/1999/xlink" x="0px" y="0px"
	 viewBox="0 0 1920 1080" style="enable-background:new 0 0 1920 1080;" xml:space="preserve">
<style type="text/css">
	.st0{fill:#00A5C8;}
</style>
<path class="st0" d="M568.7,733.6l-6.4,2.9c-14.2,7.1-28.2,14.4-42.3,21.6l-16.5,38.1c-16.5,38.5-33,77-48.8,115.5
	c-8,19.3-15.7,38.6-23.3,57.9l-11,28.9l-8,22.3c-2.5,7.2-7.1,12.4-13.5,15.8c-6.3,3.3-14,4.4-21.6,2.4c-7.5-2-13.5-6.9-16.8-13.4
	c-3.3-6.4-4.4-14.9-1.7-22.4l7.8-23.8l10.8-30.1c7.4-19.9,14.8-39.8,22.5-59.4c11.3-29.1,22.9-58,34.5-86.8
	c-1.1,0.6-2.1,1.1-3.2,1.7c-43.1,23.3-85.9,47.5-125.9,73.1c-3.9,2.3-7.8,4.5-11.6,6.9c-10,6.1-22.2,7.1-32.8,4.4
	c-10.9-2.7-21.7-9.3-29.1-19.6c-7.4-10.3-9.7-22.6-6.7-34.6c3-12.2,10.9-22.7,22.5-29.7c4.4-2.5,8.7-4.7,13-7
	c46.5-22.6,92.7-41.9,139.3-60.5c24.3-9.7,48.6-19.1,72.9-28.3l69.8-169.8c31.8-77.5,63.5-155.2,92.5-232.9
	c14.3-38.8,28.1-77.9,38.6-116.3l2-7.2l1.7-7.1c1-4.7,2.4-9.5,3.1-14l1.3-6.8c0.5-2.3,0.9-4.5,1.1-6.6c0.5-4.2,1.2-8.6,1.2-12
	c0.4-3.8-0.1-7-0.1-7.7c-0.2-0.9-0.4-1.8-1-2.6c-0.5-0.7-1.1-1.5-1.7-2.2c-0.7-0.6-1.6-0.9-2.4-1.1c0.7,0.1-7.8-1.7-14.3-2.4
	c-6.9-0.8-14.3-1.4-21.9-1.8c-15.1-0.7-30.8-0.7-46.5-0.2c-31.6,0.9-63.6,3.6-95.6,7.2c-16,1.8-32,3.9-48,6.1
	c-16,2.3-32.3,4.8-47.3,7.5c-30.6,5.7-60.9,13.4-90.4,23.3c-29.5,9.8-58.4,21.6-85.8,35.5c-13.7,6.9-27.1,14.3-39.6,22.2
	c-3.1,2-6.2,4-9.1,6c-0.6,0.5-0.4,0.4-0.6,0.6c-0.3,0.3-0.5,0.6-0.6,0.9c-0.1,0.4,0.3,0.7,0.5,0.9l0.2,0.2c0.1,0.1,0.1,0,0.3,0.5
	l0.9,1.5l3,5.2c8.2,14.2,16.9,28.8,25.4,45.1c2.1,4,4.2,8.4,6.3,12.7l3.1,6.9l2.6,6.2c3.4,8,6.6,16.1,9.8,24.1l8.5,22.4l4.5,12
	c8.6,24.9-4.8,51.5-29.1,58.7c-24.3,7.2-49.7-5.6-57.7-28.6l-3.7-11.3l-3.4-9.6l-4-11.2c-2.7-7.4-5.5-14.8-8.4-22l-2.1-5.3l-1.9-4.5
	c-1.5-3.2-2.9-6.3-4.6-9.6c-6.5-13.2-14.4-27.2-22.5-41.7l-8.2-14.9c-1.8-3.1-3.6-6.9-5.4-10.4l-2.7-5.4l-2.3-5.4l-2.2-5.4
	c-0.7-1.8-1-3.6-1.5-5.4l-1.3-5.4l-0.7-5.3c-0.3-1.8-0.4-3.5-0.4-5.2c0.1-1.7-0.2-3.4,0.1-5.2l0.4-2.6l0.1-0.7l0-0.3
	c-0.8-0.3,1.1,0,0.9-0.1l0.3-1.3l1.2-5.2c0.5-3.5,2.2-6.5,4-9.6l3-4.5c1-1.5,2.4-2.9,3.5-4.3c4.8-5.7,10.8-10.9,17-15.9
	c3-2.5,6.4-4.8,9.6-7.2c1.6-1.2,3.2-2.4,4.9-3.5l4.8-3.2c3.9-2.6,7.8-5,11.8-7.4c15.6-9.5,31.4-17.8,47.4-25.4
	c31.9-15.3,64.7-27.9,98.1-38.3c33.4-10.4,67.5-18.4,102-24.1c17.5-2.8,34-4.9,50.8-7c16.8-2,33.6-3.8,50.5-5.4
	c33.8-3.1,67.7-5.3,102.3-5.7c17.3-0.2,34.7,0.1,52.6,1.3c9,0.6,18.1,1.5,27.5,2.8l7.2,1.1l7.4,1.4l3.9,0.9l2.1,0.5l2.7,0.7
	c3.7,1,7.3,2.1,10.8,3.4c8.9,3.3,17.5,7.7,24.2,14.4c3.4,3.2,6.2,7.1,9,11c2.8,3.8,5.5,7.8,7.7,12c1.1,2.1,2.1,4.3,3.1,6.4
	c0.9,2.2,1.6,4.5,2.4,6.7c1.6,4.5,2.3,9.2,3.1,13.9c0.4,2.4,0.7,4.7,0.7,6.8l0.2,6.1c0.2,4.1-0.1,7.2-0.3,10.7
	c-0.8,13.8-3.2,25.3-5.6,36.8c-1.1,5.9-2.7,11.1-4.1,16.7l-2.1,8.2l-2.3,7.9c-12.5,42.4-27.6,82.2-43.1,121.8
	c-31.3,78.9-64.6,156.1-98,233.2l-49.7,114.3c12.3-1.5,24.6,5.1,29.5,17C589.6,711,583,727.5,568.7,733.6z M922.3,880.6
	c0.5,5.9,0,11.8-1.9,17.7c-1.9,5.8-5.2,11.8-10.8,17.8c-4.2,4.3-8.5,8.3-12.3,11.7l-11.1,9.3c-3.3,2.6-6.9,5.5-14,9
	c-0.8,0.4-1.9,0.9-3,1.4c-1.1,0.5-2.2,0.9-3.3,1.3c-1.4,0.5-2.9,0.9-4.4,1.3l-2.3,0.5l-2.9,0.5c-2.1,0.3-3.6,0.5-6.1,0.6
	c-2.4,0.1-4.9,0-7.3-0.3c-2.5-0.3-5.5-0.9-8.2-1.7c-2.7-0.8-5.4-1.8-8.1-3.2c-5.5-2.7-9.4-5.8-13.2-9.5c-1.6-1.7-2.8-3.1-4.1-4.8
	c-1.2-1.6-2.5-3.5-3.2-4.7c-3.4-5.8-4.7-10.1-5.8-13.7c-0.4-1.6-0.8-3.3-1.1-4.9l-0.6-3.9c-0.2-1.4-0.3-2.4-0.4-3.5l-0.2-3.2
	c-0.2-7.8,0.3-13.3,1-18.7c0.5-3.8,1-7.4,1.7-10.9c-2.4,2.6-4.7,5.3-7.1,7.9c-4.6,5.2-10.8,11.6-17,17.4
	c-12.4,11.6-26.4,22-41.8,30.4c-15.4,8.4-32.3,15-50.9,18.5c-4.6,1-9.5,1.4-14.4,2c-1.2,0.1-2.5,0.1-3.8,0.2l-4.2,0.1
	c-3.2,0.2-6.4-0.1-9.6-0.3c-6.5-0.4-12.8-1.5-19-3.1c-6-2-12.1-4-17.6-7.1l-2.1-1.1c-0.5-0.7-1.3-0.9-1.9-1.4l-4-2.6
	c-1.4-0.8-2.5-1.9-3.6-3l-3.4-3.3c-2.2-2.3-3.9-5-5.9-7.4c-1.9-2.5-3.4-5.4-5-8.2c-1.7-2.7-2.7-5.8-4-8.8c-0.6-1.5-1.2-3-1.7-4.5
	l-1.3-4.7c-0.8-3.2-1.8-6.3-2.5-9.5l-1.4-8.7c-2.5-19.2-1.6-36.5,0.4-53.4c2.2-16.9,5.8-33.1,10.7-49c1.2-4,2.5-7.8,3.9-11.6
	c1.4-3.8,2.7-7.7,4.1-11.3c2.8-7.1,5.6-14.5,8.5-21.3c11.6-27.8,24-54.4,36.6-80.9c12.6-26.4,25.5-52.6,38.6-78.6l6.5-12.7
	c12.1-22.6,40.2-30.9,62.4-18.6c22.2,12.3,30.4,40,18.5,62.1l-6.9,12.2c-14.1,24.9-28,49.9-41.5,74.9c-13.5,25-26.7,50.2-38.6,75.1
	c-3.1,6.3-5.7,12.3-8.5,18.5c-1.4,3.1-2.5,5.9-3.7,8.9c-1.2,2.9-2.5,5.9-3.4,8.7c-4.2,11.5-7.5,23.4-9.6,35.1
	c-2.1,11.6-3,23.4-2.3,32.9l0.2,1.6c0,0.2,0,0.3,0,0.5c0,0.3,0,0.6,0.1,1c0,0.7,0.2,1.3,0.3,2c0.3,1.3,1,2.6,2.2,3.4
	c1.2,0.8,2.5,1.2,4,1.5c0.4,0.1,0.7,0.1,1.1,0.1c0.1,0,0.7,0,1.2,0.1c0.5,0,1,0.1,1.6,0c2.3-0.2,4.6-0.1,7.1-0.6
	c9.8-1.3,20.5-4.6,30.6-9.5c10.2-4.9,20-11.3,29.1-19c4.5-3.9,8.6-7.6,13.9-13c5-4.9,9.9-9.9,14.8-15c19.6-20.1,38.4-41.1,56.5-62.5
	c15.2-18.2,29.7-36.8,43-55.8c22.1-49.7,45.5-98.1,69.6-146.3l3.1-6.4c6.5-14.3,23.3-20.7,37.5-14.1c14.1,6.6,20.4,23.2,14,37.4
	l-2.8,6.5c-23.7,60.1-46.5,120.7-66.2,181.2c-4.8,15.1-9.5,30.2-13.6,45.2c-1.9,7.4-4.2,15-5.6,22.1l-2.4,10.8l-1.5,7.8
	c5,1.8,9.7,4.4,14,7.9C915.7,857.6,921.2,868.9,922.3,880.6z M885.9,892.9C885.9,892.9,885.9,893,885.9,892.9
	C886.3,892.9,886.2,892.9,885.9,892.9z M1236.4,516.5c-2.9-1.4-5.7-2.9-8.7-4.1c-7.7-3.3-15.9-5.6-24.4-7c-4.2-0.7-8.6-1.1-13-1.2
	c-4.5-0.1-8.6,0-13.9,0.7c-4.2,0.5-8.9,1.7-12.4,2.7l-5.2,1.7l-4.7,1.8c-6.1,2.4-11.8,5-17.2,7.8c-10.9,5.5-21,11.5-31,18.2
	c-5,3.3-9.9,6.9-14.7,10.7c-2.4,1.8-4.9,3.9-7.3,5.9l-3.6,3.2l-1.8,1.6l-1.5,1.4c-8.1,7.5-16.2,15.2-24.1,23.3
	c-8,8-15.9,16.6-23.7,26l-2.9,3.7l-1.5,1.8c-0.5,0.5-1.2,1.7-1.8,2.5c-2.4,3.7-5.2,7.1-7.4,11.2c-2.3,4-4.7,7.9-6.3,12.1
	c-2,4.1-3.3,8.4-4.5,12.7c-2,8.6-2.5,17.6-0.7,26.4c1.9,8.7,5.7,16.8,11.3,23.8c2.7,3.6,6.1,6.8,9.1,10.2c3.3,3.2,6.6,6.1,10,9.2
	c1.9,1.8,2.7,2.4,3.8,3.4l3.2,2.8l6.4,5.5l49.5,41.1c7.9,6.7,15.9,13.4,22.8,19.9c1.9,1.7,3.4,3.2,5,4.8l2.4,2.3l1.8,2
	c0.6,0.7,1.2,1.3,1.9,2.1l2,2.5c1.3,1.7,2.8,3.3,4,5c5.1,6.8,9.2,13.8,12.3,20.5c3.1,6.7,4.9,13.3,5.2,18.2c0.1,3.2-2.1,5.6-4.7,5.5
	c-0.1,0-0.1,0-0.3,0.1l-1,0.3c-0.7,0.2-1.3,0.4-2,0.6l-4.7,1c-3,0.7-6.6,1.1-9.8,1.7c-3.4,0.5-6.9,0.8-10.4,1.3l-10.6,0.8
	c-14.3,0.8-28.8,0.4-42-1.3c-3.3-0.4-6.4-1.1-9.6-1.5c-3.1-0.6-5.8-1.4-8.7-2c-2.4-0.9-5.1-1.6-7.1-2.5c-0.9-0.5-1.8-0.9-2.7-1.3
	c-0.4-0.2-1.1-0.4-1.2-0.6c-0.2-0.2-0.4-0.4-0.6-0.5c-0.2-0.2-0.4-0.3-0.6-0.4l-0.3-0.2c-0.1,0-0.2-0.1-0.6-0.4l-3.4-2.7
	c-1.2-0.9-1.9-1.8-2.9-2.6l-1.4-1.3l-1-1.2c-2-2-1.6-1.8-1.6-2c0.1-0.1,0.1-0.2,0.2-0.2c0,0,0.3-0.1,0.3-0.1c-0.1,0-0.4,0-1-0.2
	c-0.6-0.2-1.4-0.5-2.5-1.1c-2.1-1.1-4.5-3.9-6.2-8.4c-0.8-2.3-1.8-4.8-2.9-7.3c-1-2.5-2.2-5.1-3.6-7.7c-2.8-5.1-6.3-10.3-10.9-14.6
	c-4.6-4.4-9.8-7.6-15.7-9.3c-2.9-0.8-6-1.3-9.2-1.4c-3.2,0.1-6.5,0.6-9.8,1.6c-6.7,2-14.5,7.7-21,16.6c-6.2,8.8-10.5,20.5-10.5,33.1
	c0.2,4.6,0.4,9.3,1.4,13.8c0.5,2.3,0.9,4.6,1.5,6.8c0.7,2.2,1.4,4.4,2.2,6.6c2.8,7.7,6.8,14.9,11.5,21.6c2.3,3.4,4.9,6.4,7.6,9.5
	l2,2.3c0.7,0.8,1.1,1.2,1.7,1.7l3.4,3.3l3.4,3.2l3.3,2.8c2.2,1.8,4.5,3.8,6.7,5.3l6.6,4.8c0.5,0.4,1.2,0.8,2,1.3l2.3,1.4l4.7,2.7
	l4.8,2.6c1.6,0.9,3,1.3,4.5,2l8.9,3.5c5.8,2,11.1,3.3,16.7,4.8c5.2,1,10.5,2.1,15.7,2.9c5,0.6,10.1,1.3,15.1,1.7
	c19.8,1.5,38.6,1,57.4-0.9c4.7-0.6,9.4-1.1,14.1-1.7c4.8-0.8,9.4-1.4,14.2-2.4c4.9-1.1,9.5-1.8,14.6-3.2l7.4-2l8.6-2.8
	c4.8-1.4,9.2-3.9,13.7-6c4.5-2.1,8.9-4.6,12.9-7.5l1.4-1.1c0.3-0.6,0.9-0.9,1.3-1.3l2.8-2.5c1.8-1.7,3.8-3.2,5.3-5.2
	c1.6-1.9,3.2-3.8,4.7-5.7c1.4-2,2.7-4.1,3.9-6.3c10.1-17,12.7-37.9,10.1-57.4c-2.3-16.4-7.7-30.3-14.1-42.7
	c-6.5-12.4-14-23.5-22.2-33.5c-2-2.5-4.2-4.8-6.3-7.3l-3.2-3.6c-1.1-1.2-2.5-2.5-3.7-3.7l-3.8-3.7l-3.5-3.1c-2.3-2.1-4.7-4.2-6.9-6
	c-9-7.7-17.8-14.4-26.5-21.1l-51.1-38.6l-14.8-11.5c-1.1-0.9-2.1-1.9-2.5-3.3c-0.5-1.3-0.4-2.8-0.1-4.1c0.4-1.4,0.9-2.7,1.6-4
	c0.3-0.6,0.9-1.5,1.3-2.3c0.2-0.3,0.1-0.2,0.5-0.7l1-1.4l2-2.7c5.5-7.3,11.7-14.8,18.5-22.3c6.7-7.5,13.9-14.9,21.1-22.3l1.3-1.4
	l1.1-1.1l2.3-2.2c1.7-1.5,3.2-3,5-4.4c3.4-2.9,7.1-5.9,10.9-8.7c7.5-5.6,15.6-10.9,23.7-15.4c4-2.3,8-4.3,11.8-6l2.7-1.2l2.4-0.9
	c1.6-0.6,2.1-0.7,3.2-1c0.9-0.2,2.9-0.4,4.6-0.5c1.8,0,3.6,0,5.5,0.2c3.7,0.4,7.6,1.3,11.4,2.6c1.4,0.5,2.8,1.1,4.2,1.7
	c4.4,2.3,9.5,2.1,15.5,0.7c5.9-1.5,13-3.8,19.3-8.5c6.2-4.6,9.6-12.1,8.1-20.7C1252.3,530,1246,521.3,1236.4,516.5z M1506,527.4
	c4.9,11.6,6.3,25.5,5.5,40.2l-0.9,11.1c-0.3,3.7-0.9,7.4-1.4,11.1c-0.5,4-1,6.8-1.6,9.9l-0.9,4.6l-1,3.9
	c-2.5,10.2-5.9,20.5-10.3,30.2c-8.7,19.6-20.7,36.8-33.6,51.6c-13,14.8-27,27.8-41.3,39.7c-6.6,5.6-15.7,12.7-24.3,18
	c-8.7,5.4-17.5,10.1-26.5,14.2c-2.4,1.1-4.8,2.2-7.2,3.2c-7,3.1-14.2,3.4-20.6,1.4c-0.5,17.9,0.1,35.9,1.7,53.1
	c0.8,7.7,1.7,15.4,3.1,22.2c0.3,1.8,0.7,3.3,1.1,4.9l0.5,2.4c0.1,0.4,0.2,0.8,0.3,1.3c0.1,0.4,0.3,1.1,0.3,0.9
	c0.1,0,0.3,0.5,0.5,0.7c0.6,1,1.6,2.1,2.7,1c0.5-0.4,0.8-0.8,1.1-1.1l0.1-0.1c0.1-0.1-0.3,0.1,1-0.6l5.8-3l11.7-6.2
	c15.8-8.3,31.5-16.5,48.5-24.6c4.5-2.2,9.2-4.3,13.8-6.4c12.8-5.4,25.3-4.7,35.9,0c10.6,4.7,19.7,13.3,24.6,25
	c4.9,11.7,4.5,24.3-0.3,35.2c-4.9,10.9-13.8,19.9-24.4,24.3c-4,1.6-8,3.2-12.1,5c-14.9,6.4-30.5,13.7-46.1,21.1l-28.4,13.6
	c-3.9,1.9-7.7,3.7-11.6,5.4c-3.9,1.8-7.7,3.3-11.6,4.8c-3.9,1.7-7.7,2.4-11.5,3.6c-3.7,0.6-7.5,1.5-11,1.4c-3.6,0.5-6.9-0.6-10.3-1
	l-5.2-0.9c-1.8-0.3-3.7-0.7-5.4-1.4c-7.1-2.7-13.5-6.6-18.9-11.4c-10.9-9.4-18.5-23.6-23.9-39.3c-2.6-8-4.9-15.8-6.9-24.3l-0.5-2.3
	l-0.4-1.9l-0.8-4.1c-0.5-2.7-1.1-5.5-1.4-8c-1.6-10.5-2.4-20.2-3-30c-1.1-19.4-0.9-38.2,0.2-57.1c1.1-18.9,3-37.7,6.4-57
	c0.8-4.8,1.9-9.7,2.9-14.6c1.3-5,2.2-9.8,3.8-15c2.7-10.2,6.8-20.4,10.7-29.5c8.1-18.3,17.3-35,27.5-51.2
	c10.2-16.2,21.4-31.7,34.3-46.7c6.5-7.5,13.4-14.8,21-21.9l2.8-2.7l3.4-2.9l6.9-5.7c1.9-1.8,5.8-4,8.8-6l9.6-6.2
	c13.4-6.5,27.3-11.8,41.3-13.1c13.9-1.9,27-0.8,38.9,4.1c5.8,2.7,11.6,6.3,16,11.2C1500.2,516.2,1503.6,521.6,1506,527.4z
	 M1444.3,582.7c0-2.5,0-4.9-0.6-7.1c-0.3-1.1-0.8-2.2-1.5-3.1c-0.8-0.9-2-1.3-3.1-1.5c-2.4-0.3-4.8,0.4-6.9,1.1
	c-2.2,0.7-4.1,1.9-5.9,3.1l-1.2,1c-0.5,0.5-0.4,0.3-1.8,1.6l-3.1,2.8l-1.5,1.4l-1.8,1.9c-5,5-9.9,10.7-14.6,16.7
	c-9.5,12-18.3,25.3-26.2,39.1c-7.9,13.8-15.1,28.2-20.5,42.2c-1.2,3.4-2.7,7-3.6,10.2l-1.5,4.9l-1.2,5c-0.6,2.2-1.1,4.7-1.6,7.2
	c6-3.1,11.8-6.5,17.1-10.1c6.1-4.2,10.7-8.1,17.3-14.1c12.2-11,23.5-22.5,33.1-34.4c9.6-11.9,17.2-24.3,22.2-37
	c2.6-6.4,4.4-12.9,5.8-19.7l0.5-2.5l0.3-1.9c0.2-1.2,0.4-2.7,0.4-3.1C1444.2,585.2,1444.3,583.9,1444.3,582.7z M1829.1,528.9
	c-7.7-10.1-18.7-16.5-29.7-19c-5.5-1.2-11-1.5-16.3-0.7c-5.3,0.9-10.5,1.9-15.1,4.7c-3.4,2-6.9,4.3-10.3,6.2
	c-17,11.5-35,21-53.7,26.4c-18.7,5.4-38.3,7-57.4,2.9l-5.2-1.9c-2.2-1.1-4.6-1.6-7.1-1.7c-0.1-1.4-0.1-2.9-0.2-4.3l-0.1-7.1
	c0.1-15.7-12.6-28.4-28.2-28.4c-15.6,0-28.3,12.7-28.3,28.1l-0.2,7c-3.3,58.7-7.4,117.4-14.1,174.8c-6.9,57.3-16.7,115-27.8,172.2
	l-2.3,13.7c-3.6,24.7,13.3,47.8,38.3,52.1c25,4.3,48.8-13.1,52.6-38.6l1.8-14.2c5.6-59.7,9.9-119.5,11.3-180.1
	c0.7-38.4,0.3-76.3-0.7-114c24.4,9.9,51.2,13.9,77.3,12.9c29.7-1.2,58.4-8.4,85.2-18.4c4.9-2.4,9.5-5.1,14.3-7.7
	c6.2-3.7,11.9-8,15.6-13.5c3.8-5.4,6.4-11.3,7.7-17.3C1839.4,551.2,1836.8,539,1829.1,528.9z"/>
</svg>
